# xmcd
#
# Track frame offsets: 
#        150
#        17095
#        36965
#        54413
#        74738
#        95591
#        118893
#        144587
#        162005
#        187096
#        203976
#        217782
#        242623
#
# Disc length: 3734 seconds
#
# Revision: 16
# Processed by: cddbd v1.5.2PL0 Copyright (c) Steve Scherf et al.
# Submitted via: ExactAudioCopyFreeDBPlugin 1.0
#
DISCID=bf0e940d
DTITLE=Madonna - Sticky and Sweet Tour
DYEAR=2010
DGENRE=Pop
TTITLE0=Candy Shop Medley
TTITLE1=Beat Goes On Medley (Featuring Kanye West)
TTITLE2=Human Nature
TTITLE3=Vogue 2008
TTITLE4=She's Not Me
TTITLE5=Music 2008
TTITLE6=Devil Wouldn't Recognize You
TTITLE7=Spanish Lesson
TTITLE8=La Isla Bonita 2008
TTITLE9=You Must Love Me
TTITLE10=Get Stupid Medley
TTITLE11=Like A Prayer 2008
TTITLE12=Give It 2 Me
EXTD=Recorded live from Buenos Aires 2008. c. 2010
EXTT0=
EXTT1=
EXTT2=
EXTT3=
EXTT4=
EXTT5=
EXTT6=
EXTT7=
EXTT8=
EXTT9=
EXTT10=
EXTT11=
EXTT12=
PLAYORDER=
